# xmcd
#
# Track frame offsets:
#	150
#	15895
#	34828
#	49538
#	65703
#	82331
#	98492
#	113165
#	136578
#	160846
#	176003
#
# Disc length: 2601 seconds
#
# Revision: 1
# Processed by: cddbd v1.4PL0 Copyright (c) Steve Scherf et al.
# Submitted via: EasyCDDAExtractor 5.1.0
#
DISCID=820a270b
DTITLE=Anna Russano - Reginella Di Napoli
DYEAR=2001
DGENRE=Country
TTITLE0=sta citta
TTITLE1=ce vuliss tu
TTITLE2=si ce stisse tu
TTITLE3=tu si na cosa speciale
TTITLE4=che vuo sape
TTITLE5=che sarra
TTITLE6=maruzzella
TTITLE7=reginello
TTITLE8=lte vurria vasa
TTITLE9=spiegammello tu
TTITLE10=la stessa storia
EXTD=
EXTT0=
EXTT1=
EXTT2=
EXTT3=
EXTT4=
EXTT5=
EXTT6=
EXTT7=
EXTT8=
EXTT9=
EXTT10=
PLAYORDER=
